<?xml version="1.0" encoding="UTF-8" standalone="no"?><!DOCTYPE svg PUBLIC "-//W3C//DTD SVG 1.1//EN" "http://www.w3.org/Graphics/SVG/1.1/DTD/svg11.dtd"><svg width="100%" height="100%" viewBox="0 0 3067 1209" version="1.1" xmlns="http://www.w3.org/2000/svg" xmlns:xlink="http://www.w3.org/1999/xlink" xml:space="preserve" xmlns:serif="http://www.serif.com/" style="fill-rule:evenodd;clip-rule:evenodd;stroke-linecap:round;stroke-linejoin:round;stroke-miterlimit:1.5;"><g><g id="Big-Cat" serif:id="Big Cat"><path d="M517.645,1101.08l17.766,19.906l42.286,-13.534l-55.547,-34.443l-4.505,28.071Z" style="fill:none;stroke:#000;stroke-width:7.18px;"/><path d="M522.15,1073.01l80.965,-74.47l-25.418,108.913" style="fill:none;stroke:#000;stroke-width:7.18px;"/><path d="M603.115,998.538l171.403,-17.138l-196.821,126.051" style="fill:none;stroke:#000;stroke-width:7.18px;"/><path d="M603.115,998.538l83.604,-42.241l109.521,-89.824l-21.722,114.927" style="fill:none;stroke:#000;stroke-width:7.18px;"/><path d="M796.24,866.473l333.62,101.978l-355.342,12.949" style="fill:none;stroke:#000;stroke-width:7.18px;"/><path d="M796.24,866.473l228.298,-4.245l105.322,106.223" style="fill:none;stroke:#000;stroke-width:7.18px;"/><path d="M1024.54,862.228l150.678,-58.301l117.644,71.776l-69.818,65.775l-93.182,26.973" style="fill:none;stroke:#000;stroke-width:7.18px;"/><path d="M1024.54,862.228l61.828,-164.715l88.85,106.414" style="fill:none;stroke:#000;stroke-width:7.18px;"/><path d="M1086.37,697.513l192.904,-234.465l4.515,64.983l-108.569,275.896" style="fill:none;stroke:#000;stroke-width:7.18px;"/><path d="M1283.79,528.031l26.452,153.651l-17.377,194.021" style="fill:none;stroke:#000;stroke-width:7.18px;"/><path d="M1310.24,681.682l91.183,34.191l-108.56,159.83" style="fill:none;stroke:#000;stroke-width:7.18px;"/><path d="M1401.42,715.873l87.139,-16.124l-108.134,149.406l-87.565,26.548" style="fill:none;stroke:#000;stroke-width:7.18px;"/><path d="M1283.79,528.031l96.988,21.142l211.333,115.864l-103.547,34.712" style="fill:none;stroke:#000;stroke-width:7.18px;"/><path d="M1202.9,555.869l-95.497,-47.007l171.869,-45.814" style="fill:none;stroke:#000;stroke-width:7.18px;"/><path d="M1172.62,592.672l-65.056,7.524l-147.608,-16.828l147.443,-74.506" style="fill:none;stroke:#000;stroke-width:7.18px;"/><path d="M959.958,583.368l-132.77,-129.459l280.213,54.953" style="fill:none;stroke:#000;stroke-width:7.18px;"/><path d="M959.958,583.368l-159.606,-23.456l-107.247,-60.98l134.083,-45.023" style="fill:none;stroke:#000;stroke-width:7.18px;"/><path d="M693.105,498.932l-112.082,-177.184l246.165,132.161" style="fill:none;stroke:#000;stroke-width:7.18px;"/><path d="M693.105,498.932l-188.084,-106.525l76.002,-70.659" style="fill:none;stroke:#000;stroke-width:7.18px;"/><path d="M505.021,392.407l-74.086,-117.882l150.088,47.223" style="fill:none;stroke:#000;stroke-width:7.18px;"/><path d="M505.021,392.407l-174.705,-52.13l100.619,-65.752" style="fill:none;stroke:#000;stroke-width:7.18px;"/><path d="M330.316,340.277l-34.978,-114.374l135.597,48.622" style="fill:none;stroke:#000;stroke-width:7.18px;"/><path d="M330.316,340.277l-108.148,-49.916l-2.379,-56.32l75.549,-8.138" style="fill:none;stroke:#000;stroke-width:7.18px;"/><path d="M1279.27,463.048l101.503,86.125l130.872,-37.924l-40.714,-77.818l-191.661,29.617Z" style="fill:none;stroke:#000;stroke-width:7.18px;"/><path d="M1470.93,433.431l121.175,231.606l73.738,-267.018l-194.913,35.412" style="fill:none;stroke:#000;stroke-width:7.18px;"/><path d="M1665.84,398.019l77.461,5.992l-151.199,261.026" style="fill:none;stroke:#000;stroke-width:7.18px;"/><path d="M1592.11,665.037l117.502,-3.453l154.401,-241.797l-120.704,-15.776" style="fill:none;stroke:#000;stroke-width:7.18px;"/><path d="M1665.84,398.019l95.067,-45.996l-17.606,51.988" style="fill:none;stroke:#000;stroke-width:7.18px;"/><path d="M1760.91,352.023l172.047,-30.317l-68.949,98.081" style="fill:none;stroke:#000;stroke-width:7.18px;"/><path d="M1932.96,321.706l185.033,-142.572l-20.766,129.184l-164.267,13.388Z" style="fill:none;stroke:#000;stroke-width:7.18px;"/><path d="M2097.22,308.318l97.719,125.059l-261.986,-111.671" style="fill:none;stroke:#000;stroke-width:7.18px;"/><path d="M2194.94,433.377l-173.067,101.945l-157.868,-115.535" style="fill:none;stroke:#000;stroke-width:7.18px;"/><path d="M2021.88,535.322l-81.646,159.346l-76.222,-274.881" style="fill:none;stroke:#000;stroke-width:7.18px;"/><path d="M1940.23,694.668l-156.158,4.203l-74.465,-37.287" style="fill:none;stroke:#000;stroke-width:7.18px;"/><path d="M1940.23,694.668l170.327,-18.315l-88.681,-141.031" style="fill:none;stroke:#000;stroke-width:7.18px;"/><path d="M2110.56,676.353l84.386,-242.976" style="fill:none;stroke:#000;stroke-width:7.18px;"/><path d="M2194.94,433.377l-2.758,231.628l40.983,51.591l107.453,-163.892l-145.678,-119.327Z" style="fill:none;stroke:#000;stroke-width:7.18px;"/><path d="M2110.56,676.353l82.081,-49.202" style="fill:none;stroke:#000;stroke-width:7.18px;"/><path d="M2097.22,308.318l256.228,-118.27l-32.933,95.761l-125.576,147.568" style="fill:none;stroke:#000;stroke-width:7.18px;"/><path d="M2117.99,179.134l235.462,10.914l49.207,-67.719l-54.701,28.066l-229.968,28.739Z" style="fill:none;stroke:#000;stroke-width:7.18px;"/><path d="M2402.66,122.329l100.404,-8.082l-9.193,29.475l33.18,56.375l-173.598,-10.049" style="fill:none;stroke:#000;stroke-width:7.18px;"/><path d="M2505.92,111.32l23.373,-23.973l30.362,11.275l35.838,77.608l-68.441,23.867" style="fill:none;stroke:#000;stroke-width:7.18px;"/><path d="M2573.21,127.118l102.124,19.111" style="fill:none;stroke:#000;stroke-width:7.18px;"/><path d="M2673.2,149.128l-146.153,50.969l90.112,44.912l56.041,-95.881Z" style="fill:none;stroke:#000;stroke-width:7.18px;"/><path d="M2673.2,149.128l-88.169,4.465" style="fill:none;stroke:#000;stroke-width:7.18px;"/><path d="M2673.2,149.128l45.759,32.888l-5.558,33.898l-96.242,29.095" style="fill:none;stroke:#000;stroke-width:7.18px;"/><path d="M2713.41,215.914l66.008,58.707l-26.808,23.735l-39.2,-82.442Z" style="fill:none;stroke:#000;stroke-width:7.18px;"/><path d="M2617.16,245.009l37.288,53.114l98.154,0.233" style="fill:none;stroke:#000;stroke-width:7.18px;"/><path d="M2654.45,298.123l37.095,50.726l40.494,4.116l20.565,-54.609" style="fill:none;stroke:#000;stroke-width:7.18px;"/><path d="M2691.55,348.849l-63.62,-2.393l-18.2,20.835l-58.017,4.382l-28.249,-35.408l130.991,-38.142" style="fill:none;stroke:#000;stroke-width:7.18px;"/><path d="M2523.46,336.265l93.703,-91.256" style="fill:none;stroke:#000;stroke-width:7.18px;"/><path d="M2523.46,336.265l3.591,-136.168" style="fill:none;stroke:#000;stroke-width:7.18px;"/><path d="M2523.46,336.265l-118.129,-71.057l-51.878,-75.16" style="fill:none;stroke:#000;stroke-width:7.18px;"/><path d="M2320.52,285.809l84.811,-20.601l38.266,80.21l-123.077,-59.609Z" style="fill:none;stroke:#000;stroke-width:7.18px;"/><path d="M2443.6,345.418l48.819,25.523l31.044,-34.676" style="fill:none;stroke:#000;stroke-width:7.18px;"/><path d="M2443.6,345.418l-27.732,159.355l76.551,-133.832" style="fill:none;stroke:#000;stroke-width:7.18px;"/><path d="M2415.87,504.773l-75.243,47.931l98.191,-25.857l-205.644,189.749" style="fill:none;stroke:#000;stroke-width:7.18px;"/><path d="M2438.81,526.847l140.939,-19.312l-55.231,91.426l-85.708,-72.114" style="fill:none;stroke:#000;stroke-width:7.18px;"/><path d="M2233.17,716.596l291.352,-117.635" style="fill:none;stroke:#000;stroke-width:7.18px;"/><path d="M2524.52,598.961l143.506,18.319l-88.275,-109.745" style="fill:none;stroke:#000;stroke-width:7.18px;"/><path d="M2579.75,507.535l188.487,61.96l-100.212,47.785" style="fill:none;stroke:#000;stroke-width:7.18px;"/><path d="M2668.03,617.28l53.808,12.391l47.566,36.702l-1.162,-96.878" style="fill:none;stroke:#000;stroke-width:7.18px;"/><path d="M2768.24,569.495l66.502,41.07l-65.34,55.808" style="fill:none;stroke:#000;stroke-width:7.18px;"/><path d="M2834.74,610.565l15.35,32.993l-31.982,32.914l-48.708,-10.099" style="fill:none;stroke:#000;stroke-width:7.18px;"/></g></g></svg>